<?xml version="1.0" encoding="UTF-8" standalone="no"?><!-- Generator: Gravit.io --><svg xmlns="http://www.w3.org/2000/svg" xmlns:xlink="http://www.w3.org/1999/xlink" style="isolation:isolate" viewBox="0 0 400 30" width="400pt" height="30pt"><defs><clipPath id="_clipPath_us2PxrlPOn8QFxhoSf283MGEhjonIVuG"><rect width="400" height="30"/></clipPath></defs><g clip-path="url(#_clipPath_us2PxrlPOn8QFxhoSf283MGEhjonIVuG)"><g><path d="M 8 2.5 L 50 2.5 C 52.76 2.5 55 4.74 55 7.5 L 55 22.5 C 55 25.26 52.76 27.5 50 27.5 L 8 27.5 C 5.24 27.5 3 25.26 3 22.5 L 3 7.5 C 3 4.74 5.24 2.5 8 2.5 Z" style="stroke:none;fill:#757575;stroke-miterlimit:10;"/><g clip-path="url(#_clipPath_TwsNOYBKKoM9C0geI6srHoQks4sEJS3w)"><text transform="matrix(1,0,0,1,10.237,20.431)" style="font-family:'Open Sans';font-weight:400;font-size:14px;font-style:normal;fill:#ffffff;stroke:none;">Login</text></g><defs><clipPath id="_clipPath_TwsNOYBKKoM9C0geI6srHoQks4sEJS3w"><rect x="0" y="0" width="52" height="25" transform="matrix(1,0,0,1,3,2.5)"/></clipPath></defs></g><g><path d="M 65 2.5 L 107 2.5 C 109.76 2.5 112 4.74 112 7.5 L 112 22.5 C 112 25.26 109.76 27.5 107 27.5 L 65 27.5 C 62.24 27.5 60 25.26 60 22.5 L 60 7.5 C 60 4.74 62.24 2.5 65 2.5 Z" style="stroke:none;fill:#757575;stroke-miterlimit:10;"/><g clip-path="url(#_clipPath_PAb6rssHrOdCGNXg234oUhzYWzjuxxYA)"><text transform="matrix(1,0,0,1,61.508,20.431)" style="font-family:'Open Sans';font-weight:400;font-size:14px;font-style:normal;fill:#ffffff;stroke:none;">Shutup</text></g><defs><clipPath id="_clipPath_PAb6rssHrOdCGNXg234oUhzYWzjuxxYA"><rect x="0" y="0" width="52" height="25" transform="matrix(1,0,0,1,60,2.5)"/></clipPath></defs></g><g><path d="M 122 2.5 L 164 2.5 C 166.76 2.5 169 4.74 169 7.5 L 169 22.5 C 169 25.26 166.76 27.5 164 27.5 L 122 27.5 C 119.24 27.5 117 25.26 117 22.5 L 117 7.5 C 117 4.74 119.24 2.5 122 2.5 Z" style="stroke:none;fill:#757575;stroke-miterlimit:10;"/><g clip-path="url(#_clipPath_Pv2yAeU1iA3NOGojYzLvr5I9GpAhsdyC)"><text transform="matrix(1,0,0,1,122.733,20.431)" style="font-family:'Open Sans';font-weight:400;font-size:14px;font-style:normal;fill:#ffffff;stroke:none;">Info-V</text></g><defs><clipPath id="_clipPath_Pv2yAeU1iA3NOGojYzLvr5I9GpAhsdyC"><rect x="0" y="0" width="52" height="25" transform="matrix(1,0,0,1,117,2.5)"/></clipPath></defs></g><g><path d="M 179 2.5 L 221 2.5 C 223.76 2.5 226 4.74 226 7.5 L 226 22.5 C 226 25.26 223.76 27.5 221 27.5 L 179 27.5 C 176.24 27.5 174 25.26 174 22.5 L 174 7.5 C 174 4.74 176.24 2.5 179 2.5 Z" style="stroke:none;fill:#757575;stroke-miterlimit:10;"/><g clip-path="url(#_clipPath_EWzTpFTfFnsnjooLux1aixKOKg5OKZCk)"><text transform="matrix(1,0,0,1,179.572,20.431)" style="font-family:'Open Sans';font-weight:400;font-size:14px;font-style:normal;fill:#ffffff;stroke:none;">Info-R</text></g><defs><clipPath id="_clipPath_EWzTpFTfFnsnjooLux1aixKOKg5OKZCk"><rect x="0" y="0" width="52" height="25" transform="matrix(1,0,0,1,174,2.5)"/></clipPath></defs></g><g><path d="M 236 2.5 L 278 2.5 C 280.76 2.5 283 4.74 283 7.5 L 283 22.5 C 283 25.26 280.76 27.5 278 27.5 L 236 27.5 C 233.24 27.5 231 25.26 231 22.5 L 231 7.5 C 231 4.74 233.24 2.5 236 2.5 Z" style="stroke:none;fill:#757575;stroke-miterlimit:10;"/><g clip-path="url(#_clipPath_rWQRJJhXCLq5h5uOhRqcDQ67G0urPGV9)"><text transform="matrix(1,0,0,1,232.399,20.431)" style="font-family:'Open Sans';font-weight:400;font-size:14px;font-style:normal;fill:#ffffff;stroke:none;">Dhcp-R</text></g><defs><clipPath id="_clipPath_rWQRJJhXCLq5h5uOhRqcDQ67G0urPGV9"><rect x="0" y="0" width="52" height="25" transform="matrix(1,0,0,1,231,2.5)"/></clipPath></defs></g><g><path d="M 293 2.5 L 335 2.5 C 337.76 2.5 340 4.74 340 7.5 L 340 22.5 C 340 25.26 337.76 27.5 335 27.5 L 293 27.5 C 290.24 27.5 288 25.26 288 22.5 L 288 7.5 C 288 4.74 290.24 2.5 293 2.5 Z" style="stroke:none;fill:#757575;stroke-miterlimit:10;"/><g clip-path="url(#_clipPath_McbP99AQzjdAnT6YVJB5x3F1hVkW6BRb)"><text transform="matrix(1,0,0,1,293.743,20.431)" style="font-family:'Open Sans';font-weight:400;font-size:14px;font-style:normal;fill:#ffffff;stroke:none;">Stat-R</text></g><defs><clipPath id="_clipPath_McbP99AQzjdAnT6YVJB5x3F1hVkW6BRb"><rect x="0" y="0" width="52" height="25" transform="matrix(1,0,0,1,288,2.5)"/></clipPath></defs></g><g><path d="M 350 2.5 L 392 2.5 C 394.76 2.5 397 4.74 397 7.5 L 397 22.5 C 397 25.26 394.76 27.5 392 27.5 L 350 27.5 C 347.24 27.5 345 25.26 345 22.5 L 345 7.5 C 345 4.74 347.24 2.5 350 2.5 Z" style="stroke:none;fill:#757575;stroke-miterlimit:10;"/><g clip-path="url(#_clipPath_TSUa5EI833i99K9p2couAgMq2ey58r5e)"><text transform="matrix(1,0,0,1,346.529,20.431)" style="font-family:'Open Sans';font-weight:400;font-size:14px;font-style:normal;fill:#ffffff;stroke:none;">Reboot</text></g><defs><clipPath id="_clipPath_TSUa5EI833i99K9p2couAgMq2ey58r5e"><rect x="0" y="0" width="52" height="25" transform="matrix(1,0,0,1,345,2.5)"/></clipPath></defs></g></g></svg>