<?xml version="1.0" encoding="UTF-8" standalone="no"?><!-- Generator: Gravit.io --><svg xmlns="http://www.w3.org/2000/svg" xmlns:xlink="http://www.w3.org/1999/xlink" style="isolation:isolate" viewBox="0 0 400 200" width="400pt" height="200pt"><defs><clipPath id="_clipPath_QgEiHckRb1zIEBAjEYTTAyJKeuVgF9Yq"><rect width="400" height="200"/></clipPath></defs><g clip-path="url(#_clipPath_QgEiHckRb1zIEBAjEYTTAyJKeuVgF9Yq)"><g><path d="M 147 23 L 387 23 C 391.967 23 396 27.033 396 32 L 396 102 C 396 106.967 391.967 111 387 111 L 147 111 C 142.033 111 138 106.967 138 102 L 138 32 C 138 27.033 142.033 23 147 23 Z" style="stroke:none;fill:#FFFFFF;stroke-miterlimit:10;opacity:0.3;"/><path d="M 147 23 L 387 23 C 391.967 23 396 27.033 396 32 L 396 102 C 396 106.967 391.967 111 387 111 L 147 111 C 142.033 111 138 106.967 138 102 L 138 32 C 138 27.033 142.033 23 147 23 Z" style="fill:none;stroke:#FB8E03;stroke-width:2;stroke-miterlimit:2;"/><rect x="178" y="57" width="40" height="19" transform="matrix(1,0,0,1,0,0)" fill="rgb(251,142,3)"/><path d=" M 219 42.21 L 219 91.79 C 219.03 93.6 218.44 95.37 217.32 96.8 C 216.8 97.46 216.15 98 215.42 98.4 C 214.67 98.79 213.84 99 213 99 C 213 99 213 99 213 99 L 183 99 C 183 99 183 99 183 99 C 182.16 99 181.33 98.79 180.58 98.4 C 179.85 98 179.2 97.46 178.68 96.8 C 177.56 95.37 176.97 93.6 177 91.79 L 177 42.21 C 176.97 40.4 177.56 38.63 178.68 37.2 C 179.2 36.54 179.85 36 180.58 35.6 C 181.33 35.21 182.16 35 183 35 C 183 35 183 35 183 35 L 213 35 C 213 35 213 35 213 35 C 213.84 35 214.67 35.21 215.42 35.6 C 216.15 36 216.8 36.54 217.32 37.2 C 218.44 38.63 219.03 40.4 219 42.21 Z  M 217 42.2 L 217 91.8 C 217 91.81 217 91.81 217 91.82 C 217.02 93.17 216.58 94.5 215.75 95.57 C 215.4 96 214.97 96.37 214.48 96.63 C 214.02 96.87 213.51 97 213 97 L 183 97 C 182.49 97 181.98 96.87 181.52 96.63 C 181.03 96.37 180.6 96 180.25 95.57 C 179.42 94.5 178.98 93.17 179 91.82 C 179 91.81 179 91.81 179 91.8 L 179 42.2 C 179 42.19 179 42.19 179 42.18 C 178.98 40.83 179.42 39.5 180.25 38.43 C 180.6 38 181.03 37.63 181.52 37.37 C 181.98 37.13 182.49 37 183 37 L 213 37 C 213.51 37 214.02 37.13 214.48 37.37 C 214.97 37.63 215.4 38 215.75 38.43 C 216.58 39.5 217.02 40.83 217 42.18 C 217 42.19 217 42.19 217 42.2 Z " fill-rule="evenodd" fill="rgb(251,142,3)"/><path d=" M 160.317 60.65 C 160.181 60.922 159.972 61.15 159.714 61.31 C 159.456 61.47 159.158 61.554 158.855 61.554 L 156.634 61.554 C 156.419 61.554 156.206 61.512 156.008 61.43 C 155.809 61.347 155.629 61.227 155.477 61.075 C 155.325 60.922 155.205 60.742 155.123 60.543 C 155.041 60.344 154.999 60.131 155 59.916 L 155 43.12 C 155 42.905 155.042 42.693 155.124 42.495 C 155.206 42.296 155.326 42.116 155.478 41.965 C 155.63 41.813 155.81 41.693 156.008 41.611 C 156.206 41.529 156.419 41.486 156.633 41.487 L 158.854 41.487 C 159.157 41.486 159.455 41.57 159.713 41.73 C 159.971 41.889 160.18 42.118 160.316 42.389 L 161.827 45.41 C 161.94 45.637 162 45.887 162 46.141 L 162 56.9 C 162 57.153 161.94 57.403 161.827 57.629 L 160.317 60.65 Z  M 159.063 60.027 L 160.573 57.008 C 160.591 56.973 160.6 56.935 160.6 56.897 L 160.6 46.141 C 160.599 46.104 160.591 46.069 160.574 46.036 L 159.065 43.014 C 159.045 42.976 159.015 42.944 158.978 42.921 C 158.941 42.899 158.899 42.887 158.856 42.887 L 156.635 42.887 C 156.574 42.887 156.514 42.911 156.471 42.955 C 156.427 42.999 156.402 43.058 156.402 43.12 L 156.402 59.916 C 156.402 59.978 156.427 60.037 156.471 60.081 C 156.514 60.125 156.574 60.15 156.635 60.15 L 158.856 60.15 C 158.899 60.15 158.941 60.137 158.978 60.115 C 159.015 60.092 159.044 60.059 159.063 60.021 L 159.063 60.027 Z " fill-rule="evenodd" fill="rgb(251,142,3)"/><path d=" M 159.199 46.854 L 159.199 56.186 C 159.192 56.367 159.115 56.538 158.984 56.663 C 158.854 56.789 158.68 56.859 158.499 56.859 C 158.318 56.859 158.144 56.789 158.014 56.663 C 157.883 56.538 157.806 56.367 157.799 56.186 L 157.799 46.854 C 157.795 46.759 157.811 46.665 157.844 46.577 C 157.878 46.489 157.929 46.408 157.994 46.34 C 158.059 46.272 158.138 46.218 158.225 46.181 C 158.311 46.144 158.405 46.125 158.499 46.125 C 158.593 46.125 158.687 46.144 158.774 46.181 C 158.86 46.218 158.939 46.272 159.004 46.34 C 159.07 46.408 159.12 46.489 159.154 46.577 C 159.187 46.665 159.203 46.759 159.199 46.854 Z " fill-rule="evenodd" fill="rgb(255,255,255)"/><path d=" M 158.5 93.11 C 157.57 93.11 156.68 92.74 156.02 92.09 C 155.36 91.43 155 90.54 155 89.61 C 155 89.61 155 89.61 155 89.61 L 155 76.71 C 155 76.71 155 76.71 155 76.71 C 155 75.78 155.36 74.89 156.02 74.23 C 156.68 73.57 157.57 73.2 158.5 73.21 C 159.43 73.2 160.32 73.57 160.98 74.23 C 161.63 74.89 162 75.78 162 76.71 C 162 76.71 162 76.71 162 76.71 L 162 89.61 C 162 89.61 162 89.61 162 89.61 C 162 90.54 161.63 91.43 160.98 92.09 C 160.32 92.74 159.43 93.11 158.5 93.11 Z  M 158.5 91.91 C 157.89 91.91 157.3 91.67 156.87 91.24 C 156.44 90.81 156.2 90.22 156.2 89.61 L 156.2 76.71 C 156.2 76.1 156.44 75.51 156.87 75.08 C 157.3 74.65 157.89 74.4 158.5 74.41 C 159.11 74.4 159.7 74.65 160.13 75.08 C 160.56 75.51 160.8 76.1 160.8 76.71 L 160.8 89.61 C 160.8 90.22 160.56 90.81 160.13 91.24 C 159.7 91.67 159.11 91.91 158.5 91.91 Z " fill-rule="evenodd" fill="rgb(251,142,3)"/><path d=" M 159.254 77.295 L 159.254 89.024 C 159.275 89.233 159.214 89.442 159.083 89.606 C 158.952 89.77 158.762 89.877 158.554 89.904 C 158.346 89.877 158.156 89.77 158.025 89.606 C 157.894 89.442 157.833 89.233 157.853 89.024 L 157.853 77.295 C 157.833 77.086 157.894 76.877 158.025 76.713 C 158.156 76.548 158.346 76.442 158.554 76.415 C 158.762 76.442 158.952 76.548 159.083 76.713 C 159.214 76.877 159.275 77.086 159.254 77.295 Z " fill-rule="evenodd" fill="rgb(255,255,255)"/><path d=" M 375.157 36 L 322.843 36 C 321.559 36 320.327 36.51 319.419 37.419 C 318.51 38.327 318 39.559 318 40.843 L 318 93.157 C 318 94.441 318.51 95.673 319.419 96.581 C 320.327 97.49 321.559 98 322.843 98 L 375.157 98 C 376.441 98 377.673 97.49 378.581 96.581 C 379.49 95.673 380 94.441 380 93.157 L 380 40.843 C 380 39.559 379.49 38.327 378.581 37.419 C 377.673 36.51 376.441 36 375.157 36 Z  M 372.735 40.844 C 373.214 40.844 373.682 40.986 374.08 41.253 C 374.479 41.519 374.789 41.897 374.972 42.339 C 375.155 42.782 375.203 43.269 375.11 43.739 C 375.017 44.208 374.786 44.64 374.447 44.979 C 374.109 45.317 373.677 45.548 373.207 45.641 C 372.738 45.735 372.251 45.687 371.808 45.503 C 371.366 45.32 370.987 45.01 370.721 44.612 C 370.455 44.213 370.313 43.745 370.313 43.266 C 370.313 42.624 370.569 42.008 371.023 41.554 C 371.477 41.1 372.093 40.845 372.735 40.844 Z  M 325.262 40.844 C 325.741 40.844 326.21 40.985 326.608 41.251 C 327.007 41.517 327.318 41.895 327.502 42.337 C 327.685 42.78 327.734 43.267 327.641 43.737 C 327.548 44.207 327.317 44.638 326.979 44.977 C 326.64 45.316 326.209 45.547 325.739 45.641 C 325.269 45.735 324.782 45.687 324.339 45.504 C 323.896 45.321 323.518 45.01 323.252 44.612 C 322.986 44.214 322.843 43.745 322.843 43.266 C 322.844 42.624 323.099 42.008 323.553 41.554 C 324.008 41.1 324.624 40.844 325.266 40.844 L 325.262 40.844 Z  M 325.262 93.158 C 324.783 93.158 324.315 93.015 323.917 92.749 C 323.518 92.483 323.208 92.105 323.025 91.663 C 322.841 91.22 322.794 90.733 322.887 90.263 C 322.98 89.794 323.211 89.362 323.55 89.023 C 323.888 88.685 324.32 88.454 324.79 88.361 C 325.259 88.267 325.746 88.315 326.189 88.499 C 326.631 88.682 327.01 88.992 327.276 89.39 C 327.542 89.789 327.684 90.257 327.684 90.736 C 327.683 91.377 327.428 91.993 326.975 92.446 C 326.522 92.9 325.907 93.155 325.265 93.157 L 325.262 93.158 Z  M 348.854 93.3 C 343.653 93.299 338.569 91.756 334.244 88.866 C 329.92 85.976 326.549 81.868 324.559 77.063 C 322.569 72.257 322.049 66.969 323.064 61.868 C 324.079 56.767 326.584 52.081 330.262 48.403 C 333.94 44.725 338.626 42.221 343.728 41.206 C 348.829 40.192 354.117 40.713 358.922 42.703 C 363.728 44.694 367.835 48.065 370.725 52.39 C 373.614 56.715 375.157 61.799 375.157 67 C 375.149 73.973 372.375 80.658 367.445 85.588 C 362.515 90.519 355.83 93.292 348.857 93.3 L 348.854 93.3 Z  M 372.732 93.158 C 372.253 93.158 371.785 93.015 371.386 92.749 C 370.988 92.483 370.678 92.105 370.494 91.663 C 370.311 91.22 370.263 90.733 370.357 90.263 C 370.45 89.794 370.681 89.362 371.02 89.023 C 371.358 88.685 371.79 88.454 372.259 88.361 C 372.729 88.267 373.216 88.315 373.659 88.499 C 374.101 88.682 374.479 88.992 374.745 89.39 C 375.012 89.789 375.154 90.257 375.154 90.736 C 375.153 91.377 374.898 91.993 374.445 92.446 C 373.991 92.9 373.376 93.155 372.735 93.157 L 372.732 93.158 Z " fill="rgb(251,142,3)"/><path d=" M 358.428 55.713 L 360.915 55.123 C 361.236 55.042 361.533 54.886 361.78 54.666 C 362.028 54.447 362.219 54.171 362.337 53.862 C 362.455 53.561 362.498 53.236 362.463 52.915 C 362.427 52.594 362.313 52.286 362.132 52.019 C 359.161 47.725 352.444 44.335 346.773 46.368 C 345.953 46.672 345.213 47.158 344.607 47.788 C 344.002 48.418 343.546 49.178 343.276 50.009 C 342.068 53.622 342.569 58.014 344.653 62.522 C 345.716 61.59 347.064 61.046 348.477 60.981 C 349.889 60.916 351.282 61.333 352.426 62.164 C 352.999 60.82 353.704 59.535 354.529 58.328 C 355.468 57.012 356.854 56.083 358.429 55.716 L 358.428 55.713 Z " fill="rgb(255,255,255)"/><path d=" M 335.714 73.371 C 338.606 73.306 341.449 72.617 344.05 71.35 C 343.117 70.287 342.574 68.938 342.509 67.526 C 342.444 66.113 342.861 64.721 343.692 63.577 C 342.35 63.003 341.068 62.299 339.865 61.473 C 338.549 60.534 337.62 59.148 337.253 57.574 L 336.652 55.087 C 336.573 54.765 336.417 54.467 336.197 54.219 C 335.978 53.972 335.701 53.781 335.391 53.665 C 335.09 53.549 334.765 53.507 334.444 53.543 C 334.124 53.578 333.816 53.691 333.548 53.87 C 329.26 56.84 325.879 63.558 327.902 69.229 C 328.208 70.05 328.695 70.79 329.327 71.396 C 329.959 72.001 330.719 72.456 331.552 72.727 C 332.896 73.162 334.301 73.379 335.714 73.371 Z " fill="rgb(255,255,255)"/><path d=" M 348.767 73.494 C 347.452 73.493 346.172 73.077 345.108 72.304 C 344.533 73.645 343.829 74.927 343.005 76.132 C 342.064 77.448 340.679 78.379 339.105 78.753 L 336.618 79.343 C 336.297 79.423 336 79.579 335.753 79.799 C 335.505 80.018 335.314 80.294 335.196 80.604 C 335.082 80.906 335.042 81.231 335.079 81.551 C 335.116 81.872 335.23 82.179 335.41 82.446 C 336.769 84.317 338.537 85.853 340.579 86.937 C 342.621 88.022 344.883 88.626 347.194 88.703 C 348.412 88.708 349.622 88.505 350.771 88.102 C 351.589 87.795 352.328 87.307 352.931 86.675 C 353.535 86.043 353.989 85.284 354.259 84.453 C 355.467 80.847 354.974 76.456 352.891 71.939 C 351.751 72.941 350.286 73.494 348.768 73.496 L 348.767 73.494 Z " fill="rgb(255,255,255)"/><path d=" M 365.994 61.741 C 362.381 60.524 357.989 61.026 353.475 63.118 C 354.411 64.179 354.958 65.527 355.025 66.94 C 355.091 68.353 354.674 69.747 353.842 70.891 C 355.187 71.465 356.472 72.169 357.679 72.994 C 358.995 73.933 359.923 75.32 360.291 76.894 L 360.881 79.381 C 360.962 79.701 361.119 79.998 361.339 80.245 C 361.558 80.492 361.833 80.684 362.141 80.803 C 362.373 80.892 362.618 80.938 362.866 80.937 C 363.265 80.939 363.655 80.817 363.983 80.589 C 368.277 77.628 371.667 70.911 369.636 65.231 C 369.33 64.413 368.844 63.674 368.214 63.07 C 367.583 62.466 366.825 62.011 365.994 61.741 Z " fill="rgb(255,255,255)"/><path d=" M 348.806 71.212 C 351.019 71.212 352.812 69.419 352.812 67.206 C 352.812 64.994 351.019 63.2 348.806 63.2 C 346.594 63.2 344.8 64.994 344.8 67.206 C 344.8 69.419 346.594 71.212 348.806 71.212 Z " fill="rgb(255,255,255)"/><path d=" M 295.157 36 L 242.843 36 C 241.559 36 240.327 36.51 239.419 37.419 C 238.51 38.327 238 39.559 238 40.843 L 238 93.157 C 238 94.441 238.51 95.673 239.419 96.581 C 240.327 97.49 241.559 98 242.843 98 L 295.157 98 C 296.441 98 297.673 97.49 298.581 96.581 C 299.49 95.673 300 94.441 300 93.157 L 300 40.843 C 300 39.559 299.49 38.327 298.581 37.419 C 297.673 36.51 296.441 36 295.157 36 Z  M 292.735 40.844 C 293.214 40.844 293.682 40.986 294.08 41.253 C 294.479 41.519 294.789 41.897 294.972 42.339 C 295.155 42.782 295.203 43.269 295.11 43.739 C 295.017 44.208 294.786 44.64 294.447 44.979 C 294.109 45.317 293.677 45.548 293.207 45.641 C 292.738 45.735 292.251 45.687 291.808 45.503 C 291.366 45.32 290.987 45.01 290.721 44.612 C 290.455 44.213 290.313 43.745 290.313 43.266 C 290.313 42.624 290.569 42.008 291.023 41.554 C 291.477 41.1 292.093 40.845 292.735 40.844 Z  M 245.262 40.844 C 245.741 40.844 246.21 40.985 246.608 41.251 C 247.007 41.517 247.318 41.895 247.502 42.337 C 247.685 42.78 247.734 43.267 247.641 43.737 C 247.548 44.207 247.317 44.638 246.979 44.977 C 246.64 45.316 246.209 45.547 245.739 45.641 C 245.269 45.735 244.782 45.687 244.339 45.504 C 243.896 45.321 243.518 45.01 243.252 44.612 C 242.986 44.214 242.843 43.745 242.843 43.266 C 242.844 42.624 243.099 42.008 243.553 41.554 C 244.008 41.1 244.624 40.844 245.266 40.844 L 245.262 40.844 Z  M 245.262 93.158 C 244.783 93.158 244.315 93.015 243.917 92.749 C 243.518 92.483 243.208 92.105 243.025 91.663 C 242.841 91.22 242.794 90.733 242.887 90.263 C 242.98 89.794 243.211 89.362 243.55 89.023 C 243.888 88.685 244.32 88.454 244.79 88.361 C 245.259 88.267 245.746 88.315 246.189 88.499 C 246.631 88.682 247.01 88.992 247.276 89.39 C 247.542 89.789 247.684 90.257 247.684 90.736 C 247.683 91.377 247.428 91.993 246.975 92.446 C 246.522 92.9 245.907 93.155 245.265 93.157 L 245.262 93.158 Z  M 268.854 93.3 C 263.653 93.299 258.569 91.756 254.244 88.866 C 249.92 85.976 246.549 81.868 244.559 77.063 C 242.569 72.257 242.049 66.969 243.064 61.868 C 244.079 56.767 246.584 52.081 250.262 48.403 C 253.94 44.725 258.626 42.221 263.728 41.206 C 268.829 40.192 274.117 40.713 278.922 42.703 C 283.728 44.694 287.835 48.065 290.725 52.39 C 293.614 56.715 295.157 61.799 295.157 67 C 295.149 73.973 292.375 80.658 287.445 85.588 C 282.515 90.519 275.83 93.292 268.857 93.3 L 268.854 93.3 Z  M 292.732 93.158 C 292.253 93.158 291.785 93.015 291.386 92.749 C 290.988 92.483 290.678 92.105 290.494 91.663 C 290.311 91.22 290.263 90.733 290.357 90.263 C 290.45 89.794 290.681 89.362 291.02 89.023 C 291.358 88.685 291.79 88.454 292.259 88.361 C 292.729 88.267 293.216 88.315 293.659 88.499 C 294.101 88.682 294.479 88.992 294.745 89.39 C 295.012 89.789 295.154 90.257 295.154 90.736 C 295.153 91.377 294.898 91.993 294.445 92.446 C 293.991 92.9 293.376 93.155 292.735 93.157 L 292.732 93.158 Z " fill="rgb(251,142,3)"/><path d=" M 278.428 55.713 L 280.915 55.123 C 281.236 55.042 281.533 54.886 281.78 54.666 C 282.028 54.447 282.219 54.171 282.337 53.862 C 282.455 53.561 282.498 53.236 282.463 52.915 C 282.427 52.594 282.313 52.286 282.132 52.019 C 279.161 47.725 272.444 44.335 266.773 46.368 C 265.953 46.672 265.213 47.158 264.607 47.788 C 264.002 48.418 263.546 49.178 263.276 50.009 C 262.068 53.622 262.569 58.014 264.653 62.522 C 265.716 61.59 267.064 61.046 268.477 60.981 C 269.889 60.916 271.282 61.333 272.426 62.164 C 272.999 60.82 273.704 59.535 274.529 58.328 C 275.468 57.012 276.854 56.083 278.429 55.716 L 278.428 55.713 Z " fill="rgb(255,255,255)"/><path d=" M 255.714 73.371 C 258.606 73.306 261.449 72.617 264.05 71.35 C 263.117 70.287 262.574 68.938 262.509 67.526 C 262.444 66.113 262.861 64.721 263.692 63.577 C 262.35 63.003 261.068 62.299 259.865 61.473 C 258.549 60.534 257.62 59.148 257.253 57.574 L 256.652 55.087 C 256.573 54.765 256.417 54.467 256.197 54.219 C 255.978 53.972 255.701 53.781 255.391 53.665 C 255.09 53.549 254.765 53.507 254.444 53.543 C 254.124 53.578 253.816 53.691 253.548 53.87 C 249.26 56.84 245.879 63.558 247.902 69.229 C 248.208 70.05 248.695 70.79 249.327 71.396 C 249.959 72.001 250.719 72.456 251.552 72.727 C 252.896 73.162 254.301 73.379 255.714 73.371 Z " fill="rgb(255,255,255)"/><path d=" M 268.767 73.494 C 267.452 73.493 266.172 73.077 265.108 72.304 C 264.533 73.645 263.829 74.927 263.005 76.132 C 262.064 77.448 260.679 78.379 259.105 78.753 L 256.618 79.343 C 256.297 79.423 256 79.579 255.753 79.799 C 255.505 80.018 255.314 80.294 255.196 80.604 C 255.082 80.906 255.042 81.231 255.079 81.551 C 255.116 81.872 255.23 82.179 255.41 82.446 C 256.769 84.317 258.537 85.853 260.579 86.937 C 262.621 88.022 264.883 88.626 267.194 88.703 C 268.412 88.708 269.622 88.505 270.771 88.102 C 271.589 87.795 272.328 87.307 272.931 86.675 C 273.535 86.043 273.989 85.284 274.259 84.453 C 275.467 80.847 274.974 76.456 272.891 71.939 C 271.751 72.941 270.286 73.494 268.768 73.496 L 268.767 73.494 Z " fill="rgb(255,255,255)"/><path d=" M 285.994 61.741 C 282.381 60.524 277.989 61.026 273.475 63.118 C 274.411 64.179 274.958 65.527 275.025 66.94 C 275.091 68.353 274.674 69.747 273.842 70.891 C 275.187 71.465 276.472 72.169 277.679 72.994 C 278.995 73.933 279.923 75.32 280.291 76.894 L 280.881 79.381 C 280.962 79.701 281.119 79.998 281.339 80.245 C 281.558 80.492 281.833 80.684 282.141 80.803 C 282.373 80.892 282.618 80.938 282.866 80.937 C 283.265 80.939 283.655 80.817 283.983 80.589 C 288.277 77.628 291.667 70.911 289.636 65.231 C 289.33 64.413 288.844 63.674 288.214 63.07 C 287.583 62.466 286.825 62.011 285.994 61.741 Z " fill="rgb(255,255,255)"/><path d=" M 268.806 71.212 C 271.019 71.212 272.812 69.419 272.812 67.206 C 272.812 64.994 271.019 63.2 268.806 63.2 C 266.594 63.2 264.8 64.994 264.8 67.206 C 264.8 69.419 266.594 71.212 268.806 71.212 Z " fill="rgb(255,255,255)"/></g><rect x="6" y="6.023" width="76.167" height="145.977" transform="matrix(1,0,0,1,0,0)" fill="rgb(48,49,49)"/><rect x="6" y="6.023" width="76.167" height="24.977" transform="matrix(1,0,0,1,0,0)" fill="rgb(47,125,51)"/><rect x="6" y="6.023" width="76.167" height="8.977" transform="matrix(1,0,0,1,0,0)" fill="rgb(27,94,32)"/><path d=" M 7.88 2.944 L 80.12 2.944 C 83.365 2.944 86 5.579 86 8.824 L 86 149.064 C 86 152.31 83.365 154.944 80.12 154.944 L 7.88 154.944 C 4.635 154.944 2 152.31 2 149.064 L 2 8.824 C 2 5.579 4.635 2.944 7.88 2.944 Z  M 7.88 7.94 L 80.12 7.94 C 80.35 7.94 80.58 8.04 80.74 8.2 C 80.91 8.37 81 8.59 81 8.82 L 81 149.06 C 81 149.3 80.91 149.52 80.74 149.69 C 80.58 149.85 80.35 149.94 80.12 149.94 L 7.88 149.94 C 7.65 149.94 7.42 149.85 7.26 149.69 C 7.09 149.52 7 149.3 7 149.06 L 7 8.82 C 7 8.59 7.09 8.37 7.26 8.2 C 7.42 8.04 7.65 7.94 7.88 7.94 Z " fill-rule="evenodd" fill="rgb(251,143,2)"/><circle vector-effect="non-scaling-stroke" cx="44" cy="11.33333333333336" r="2.333333333333364" fill="rgb(251,143,2)"/><path d=" M 44 179.944 Q 44.25 195.944 60 195.944 Q 75.75 195.944 89.333 195.944 Q 106.333 196.944 106.333 179.944 Q 106.333 162.944 106.333 65.382 Q 106.712 51.382 120.333 51.382" fill="none" vector-effect="non-scaling-stroke" stroke-width="1" stroke="rgb(251,143,2)" stroke-linejoin="miter" stroke-linecap="butt" stroke-miterlimit="3"/><g><g><path d=" M 37.644 154.944 L 37.644 178.673 L 38.915 179.944 L 49.085 179.944 L 50.356 178.673 L 50.356 154.944 L 37.644 154.944 Z " fill="rgb(251,143,2)"/><g><path d=" M 44.424 161.512 L 44.424 173.8 L 43.577 173.8 L 43.577 161.512 L 42.306 161.512 L 44 159.394 L 45.695 161.512 L 44.424 161.512 Z " fill="rgb(255,255,255)"/><path d=" M 40.185 164.477 L 41.033 164.477 L 41.033 167.019 C 41.033 167.024 41.033 167.024 41.033 167.028 C 41.033 167.278 41.067 167.532 41.147 167.774 C 41.211 167.96 41.304 168.134 41.427 168.29 C 41.558 168.452 41.702 168.596 41.863 168.718 C 42.045 168.863 42.232 168.998 42.427 169.125 C 42.66 169.282 42.889 169.452 43.109 169.629 C 43.355 169.824 43.575 170.049 43.766 170.303 C 43.978 170.591 44.143 170.913 44.249 171.252 C 44.372 171.672 44.431 172.1 44.423 172.536 L 43.575 172.524 C 43.584 172.176 43.533 171.833 43.435 171.498 C 43.359 171.252 43.24 171.019 43.088 170.812 C 42.94 170.617 42.77 170.443 42.579 170.29 C 42.38 170.129 42.168 169.977 41.952 169.833 C 41.745 169.689 41.541 169.545 41.342 169.388 C 41.13 169.223 40.935 169.032 40.766 168.82 C 40.579 168.587 40.435 168.32 40.342 168.04 C 40.236 167.71 40.181 167.363 40.185 167.019 L 40.185 164.477 Z " fill="rgb(255,255,255)"/><path d=" M 41.882 164.478 C 41.882 164.933 41.639 165.352 41.246 165.579 C 40.852 165.806 40.367 165.806 39.974 165.579 C 39.581 165.352 39.338 164.932 39.339 164.477 C 39.339 163.775 39.908 163.206 40.611 163.206 C 41.313 163.207 41.882 163.776 41.882 164.478 L 41.882 164.478 Z  M 45.695 173.8 C 45.695 174.737 44.937 175.495 44 175.495 C 43.064 175.495 42.306 174.737 42.306 173.8 C 42.306 172.864 43.064 172.105 44 172.105 C 44.937 172.105 45.695 172.864 45.695 173.8 Z " fill="rgb(255,255,255)"/><path d=" M 46.965 162.782 L 47.812 162.782 L 47.812 165.324 C 47.817 165.668 47.766 166.015 47.66 166.346 C 47.562 166.625 47.418 166.892 47.236 167.125 C 47.067 167.337 46.872 167.528 46.66 167.693 C 46.461 167.85 46.257 167.994 46.045 168.138 C 45.834 168.282 45.622 168.435 45.418 168.596 C 45.232 168.748 45.062 168.922 44.914 169.117 C 44.757 169.324 44.643 169.557 44.567 169.803 C 44.465 170.138 44.418 170.481 44.423 170.829 L 43.575 170.841 C 43.571 170.405 43.63 169.977 43.753 169.557 C 43.859 169.218 44.02 168.896 44.236 168.608 C 44.427 168.354 44.647 168.129 44.889 167.935 C 45.113 167.757 45.342 167.587 45.575 167.43 C 45.77 167.303 45.956 167.168 46.139 167.024 C 46.3 166.901 46.444 166.757 46.571 166.596 C 46.694 166.439 46.791 166.265 46.855 166.079 C 46.931 165.837 46.969 165.583 46.965 165.333 C 46.965 165.329 46.965 165.329 46.965 165.324 L 46.965 162.782 Z " fill="rgb(255,255,255)"/><path d=" M 46.119 161.936 L 48.661 161.936 L 48.661 164.478 L 46.119 164.478 L 46.119 161.936 Z " fill="rgb(255,255,255)"/></g></g><line x1="146.387" y1="51.356" x2="147" y2="51.356" vector-effect="non-scaling-stroke" stroke-width="5" stroke="rgb(251,143,2)" stroke-linejoin="miter" stroke-linecap="square" stroke-miterlimit="3"/><path d=" M 147.548 55.828 L 152.02 51.356 L 147.548 46.884 Z " fill="rgb(251,143,2)" stroke="none"/></g><g><path d=" M 142.203 45 L 121.271 45 L 120 46.271 L 120 56.441 L 121.271 57.712 L 142.203 57.712 L 142.203 45 Z " fill="rgb(251,143,2)"/><g><path d=" M 135.655 51.711 L 126.118 51.711 L 126.118 51.053 L 135.655 51.053 L 135.655 50.067 L 137.3 51.382 L 135.655 52.698 L 135.655 51.711 Z " fill="rgb(255,255,255)"/><path d=" M 133.354 48.421 L 133.354 49.079 L 131.381 49.079 C 131.378 49.079 131.378 49.079 131.374 49.079 C 131.18 49.079 130.983 49.105 130.795 49.168 C 130.651 49.217 130.516 49.289 130.394 49.385 C 130.269 49.487 130.157 49.599 130.062 49.723 C 129.95 49.865 129.845 50.01 129.746 50.161 C 129.625 50.342 129.493 50.519 129.355 50.69 C 129.204 50.881 129.029 51.052 128.832 51.2 C 128.608 51.365 128.358 51.493 128.095 51.575 C 127.77 51.67 127.438 51.717 127.099 51.71 L 127.109 51.052 C 127.378 51.059 127.645 51.019 127.905 50.944 C 128.095 50.884 128.276 50.792 128.437 50.674 C 128.589 50.559 128.723 50.427 128.842 50.279 C 128.967 50.125 129.085 49.96 129.197 49.793 C 129.309 49.631 129.421 49.474 129.542 49.319 C 129.671 49.155 129.819 49.003 129.983 48.872 C 130.164 48.727 130.371 48.615 130.588 48.543 C 130.845 48.461 131.114 48.418 131.381 48.421 L 133.354 48.421 Z " fill="rgb(255,255,255)"/><path d=" M 133.353 49.738 C 133 49.738 132.675 49.55 132.498 49.244 C 132.322 48.939 132.322 48.562 132.499 48.257 C 132.675 47.952 133.001 47.764 133.354 47.764 C 133.899 47.764 134.341 48.206 134.34 48.751 C 134.34 49.296 133.898 49.738 133.353 49.738 L 133.353 49.738 Z  M 126.118 52.698 C 125.391 52.698 124.802 52.109 124.802 51.382 C 124.802 50.655 125.391 50.067 126.118 50.067 C 126.844 50.067 127.433 50.655 127.433 51.382 C 127.433 52.109 126.844 52.698 126.118 52.698 Z " fill="rgb(255,255,255)"/><path d=" M 134.67 53.683 L 134.67 54.341 L 132.696 54.341 C 132.43 54.344 132.16 54.305 131.904 54.223 C 131.687 54.147 131.479 54.035 131.299 53.894 C 131.134 53.762 130.986 53.611 130.858 53.446 C 130.736 53.292 130.624 53.134 130.513 52.97 C 130.401 52.805 130.282 52.641 130.157 52.483 C 130.039 52.338 129.904 52.207 129.753 52.091 C 129.592 51.97 129.411 51.881 129.22 51.822 C 128.96 51.743 128.694 51.707 128.424 51.71 L 128.414 51.052 C 128.753 51.049 129.085 51.095 129.411 51.19 C 129.674 51.273 129.924 51.397 130.148 51.565 C 130.345 51.713 130.519 51.884 130.67 52.072 C 130.809 52.246 130.94 52.424 131.062 52.605 C 131.16 52.756 131.266 52.9 131.378 53.042 C 131.473 53.167 131.585 53.279 131.71 53.377 C 131.831 53.473 131.966 53.548 132.111 53.598 C 132.298 53.657 132.496 53.687 132.69 53.683 C 132.693 53.683 132.693 53.683 132.696 53.683 L 134.67 53.683 Z " fill="rgb(255,255,255)"/><path d=" M 135.326 53.027 L 135.326 55 L 133.353 55 L 133.353 53.027 L 135.326 53.027 Z " fill="rgb(255,255,255)"/></g></g></g></svg>